<?xml version="1.0" encoding="UTF-8"?>
<svg xmlns="http://www.w3.org/2000/svg" width="512" height="512" viewBox="0 0 512 512" fill="none">
<g fill-rule="evenodd" clip-rule="evenodd">
<path d="M 74 338 L 175 337 L 252 366 L 336 337 L 437 338 L 415 244 L 405 248 L 421 328 L 370 324 L 298 336 L 345 319 L 412 318 L 391 232 L 315 245 L 256 286 L 196 245 L 120 232 L 100 318 L 158 318 L 207 334 L 89 328 L 106 248 L 95 244 Z M 208 334 L 211 333 L 212 336 L 209 337 Z M 387 240 L 402 302 L 402 312 L 370 313 L 330 320 L 294 333 L 266 350 L 259 351 L 259 288 L 273 274 L 293 260 L 327 246 L 357 240 Z M 124 241 L 143 239 L 186 247 L 215 259 L 242 278 L 251 287 L 250 343 L 252 351 L 248 352 L 226 338 L 188 322 L 149 314 L 109 312 Z" fill="#002E64"/>
<path d="M 132 247 L 120 303 L 147 305 L 186 313 L 216 324 L 249 343 L 249 292 L 236 280 L 218 268 L 191 256 L 154 248 Z" fill="#00ADED"/>
<path d="M 379 247 L 356 248 L 334 252 L 296 266 L 305 264 L 307 267 L 305 270 L 310 275 L 310 279 L 308 280 L 311 283 L 310 291 L 312 292 L 312 299 L 310 303 L 312 306 L 307 309 L 311 314 L 306 315 L 306 319 L 295 323 L 338 309 L 391 303 Z" fill="#00A58B"/>
<path d="M 306 261 L 305 264 L 299 264 L 298 267 L 294 267 L 282 275 L 279 275 L 279 277 L 262 292 L 262 341 L 296 323 L 313 317 L 310 316 L 310 312 L 314 300 L 312 299 L 312 297 L 315 294 L 313 292 L 314 289 L 312 288 L 313 281 L 310 277 L 310 275 L 312 274 L 308 269 L 309 266 L 306 263 Z" fill="#009781"/>
<path d="M 259 101 L 247 103 L 242 110 L 242 121 L 206 149 L 186 148 L 177 160 L 179 169 L 185 175 L 201 174 L 240 206 L 245 201 L 205 169 L 208 154 L 244 127 L 253 129 L 267 127 L 303 155 L 307 152 L 269 121 L 269 110 Z" fill="#00ADED"/>
<path d="M 327 148 L 309 150 L 305 157 L 306 169 L 268 202 L 273 213 L 299 218 L 302 226 L 312 233 L 324 225 L 326 212 L 343 207 L 353 200 L 370 206 L 379 191 L 373 184 L 357 183 L 353 196 L 327 208 L 308 205 L 299 214 L 273 209 L 274 203 L 309 174 L 315 177 L 332 171 L 333 158 Z" fill="#00A58B"/>
<path d="M 136 186 L 134 197 L 139 203 L 147 205 L 158 200 L 186 213 L 189 227 L 196 231 L 206 229 L 212 218 L 239 213 L 243 220 L 253 228 L 255 263 L 258 228 L 267 221 L 270 211 L 269 206 L 264 202 L 251 200 L 241 209 L 212 214 L 203 205 L 198 204 L 187 209 L 157 196 L 156 189 L 151 183 L 142 182 Z" fill="#002E64"/>
<path d="M 359 247 L 340 249 L 307 259 L 291 267 L 261 292 L 261 343 L 290 327 L 320 316 L 296 324 L 262 342 L 261 292 L 290 268 L 310 258 L 332 251 Z" fill="#0A8271"/>
<path d="M 198 325 L 200 326 L 200 328 L 197 329 L 200 330 L 199 333 L 203 333 L 212 337 L 211 334 L 202 331 L 201 328 L 203 327 Z" fill="#042556"/>
<path d="M 311 333 L 309 332 L 309 330 L 301 334 L 299 334 L 298 331 L 295 332 L 297 332 L 299 336 Z" fill="#042556"/>
<path d="M 182 325 L 182 328 L 187 329 L 188 327 L 190 327 L 191 330 L 198 330 Z" fill="#142A4E"/>
<path d="M 257 256 L 253 259 L 255 269 Z" fill="#0B1E45"/>
<path d="M 330 328 L 328 328 L 327 325 L 320 327 L 319 330 Z" fill="#0B1E45"/>
<path d="M 207 156 L 245 128 L 252 130 L 267 128 L 304 157 L 305 156 L 296 151 L 267 128 L 262 128 L 259 130 L 244 128 Z" fill="#0797D0"/>
<path d="M 336 323 L 326 325 L 328 325 L 329 327 L 333 327 Z" fill="#142A4E"/>
<path d="M 291 190 L 272 206 L 269 205 L 270 207 L 275 208 L 276 203 L 279 200 L 281 200 Z" fill="#009781"/>
<path d="M 298 143 L 270 121 L 270 110 L 264 102 L 259 100 L 251 100 L 247 102 L 241 110 L 241 121 L 202 150 L 241 121 L 241 110 L 243 106 L 251 100 L 259 100 L 265 103 L 270 110 L 270 121 Z" fill="#0797D0"/>
<path d="M 323 329 L 320 329 L 319 327 L 313 329 L 314 331 Z" fill="#142A4E"/>
<path d="M 390 289 L 392 298 L 391 305 L 373 305 L 351 308 L 322 315 L 340 310 L 365 306 L 393 305 Z" fill="#0A8271"/>
<path d="M 249 286 L 251 292 L 251 343 L 250 350 L 248 351 L 251 351 L 251 291 Z" fill="#042556"/>
<path d="M 110 307 L 111 311 L 122 311 L 111 310 Z" fill="#0B1E45"/>
<path d="M 310 204 L 317 204 L 324 208 L 316 203 Z" fill="#009781"/>
<path d="M 249 367 L 263 367 Z" fill="#0B1E45"/>
</g></svg>